PathFileType   4   (X/Y/Z)
DataRate	CameraRate	NumFrames	NumMarkers	Units	OrigDataRate	OrigDataStartFrame	OrigNumFrames
120.0	120.0	6	37	mm	120.0	15	116
Frame#	Time	midhip	hip_r	hip_l	knee_r	knee_l	ankle_r	ankle_l	midasis	asis_r	asis_l	psis_r	psis_l	epicondLat_r	epicondLat_l	epicondMed_r	epicondMed_l	malleolusLat_r	malleolusLat_l	malleolusMedv_r	malleolusMedv_l	neck	subclavicle_r	subclavicle_l	sternalnotch	xyphoidprocess	thighwand_r	thighwand_l	upperleg1_r	upperleg1_l	upperleg2_r	upperleg2_l	shankwand_r	shankwand_l	lowerleg1_r	lowerleg1_l	toe_r	toe_l
 	 	X1	Y1	Z1	X2	Y2	Z2	X3	Y3	Z3	X4	Y4	Z4	X5	Y5	Z5	X6	Y6	Z6	X7	Y7	Z7	X8	Y8	Z8	X9	Y9	Z9	X10	Y10	Z10	X11	Y11	Z11	X12	Y12	Z12	X13	Y13	Z13	X14	Y14	Z14	X15	Y15	Z15	X16	Y16	Z16	X17	Y17	Z17	X18	Y18	Z18	X19	Y19	Z19	X20	Y20	Z20	X21	Y21	Z21	X22	Y22	Z22	X23	Y23	Z23	X24	Y24	Z24	X25	Y25	Z25	X26	Y26	Z26	X27	Y27	Z27	X28	Y28	Z28	X29	Y29	Z29	X30	Y30	Z30	X31	Y31	Z31	X32	Y32	Z32	X33	Y33	Z33	X34	Y34	Z34	X35	Y35	Z35	X36	Y36	Z36	X37	Y37	Z37

	15	0.22500	1329.690	682.375	-160.479	1326.214	693.403	-96.401	1322.049	683.787	-221.793	1394.091	384.679	-130.404	1397.861	371.199	-228.355	1345.687	57.260	-117.403	1149.128	173.082	-216.864	1391.488	749.950	-166.040	1394.594	757.123	-72.516	1388.381	742.777	-259.564	1247.502	795.113	-144.445	1241.712	785.527	-199.719	1400.674	380.630	-80.498	1384.737	369.028	-276.553	1380.798	383.727	-176.772	1425.118	367.042	-176.798	1345.504	58.616	-83.931	1144.048	177.498	-250.701	1342.028	65.500	-143.987	1150.479	186.810	-188.641	1281.559	1136.040	-158.076	1364.190	1093.971	-99.274	1362.198	1101.136	-225.875	1358.405	1085.562	-165.705	1389.369	945.417	-173.423	1391.645	465.511	6.325	1494.170	500.091	-295.141	1407.359	535.222	-57.816	1435.634	540.149	-222.569	1427.694	456.409	-80.878	1446.300	453.186	-214.639	1358.994	159.877	-13.577	1275.021	163.314	-263.204	1367.102	213.785	-75.073	1287.342	244.753	-242.827	1441.698	38.292	-122.232	1172.015	83.915	-216.128
	16	0.23333	1338.845	684.679	-160.355	1335.263	695.194	-96.081	1331.311	686.571	-221.552	1396.270	385.071	-129.685	1417.057	376.190	-228.185	1346.139	57.603	-117.621	1177.612	168.795	-215.348	1400.669	752.274	-165.158	1403.613	758.697	-71.704	1397.726	745.851	-258.612	1256.864	797.211	-144.040	1251.310	788.000	-199.366	1402.032	380.788	-79.698	1404.939	373.878	-276.640	1387.664	384.342	-176.323	1443.546	373.413	-176.604	1345.579	58.922	-84.152	1171.719	173.514	-249.011	1342.346	65.911	-143.953	1178.756	182.313	-186.942	1292.405	1138.668	-157.826	1375.336	1096.658	-99.463	1372.811	1103.401	-225.774	1369.103	1087.929	-165.731	1400.026	947.828	-173.090	1393.734	465.862	7.144	1510.927	509.162	-292.731	1412.237	535.013	-56.228	1448.967	547.079	-221.148	1432.234	456.443	-78.697	1462.572	460.498	-213.408	1358.740	160.063	-13.468	1302.539	164.783	-264.012	1367.723	214.047	-74.753	1312.184	246.437	-242.580	1441.855	38.288	-122.201	1205.629	81.909	-216.141
	17	0.24167	1347.956	686.777	-160.185	1344.281	696.818	-95.715	1340.538	689.127	-221.252	1398.446	385.455	-129.016	1435.565	380.998	-228.048	1346.567	58.004	-117.942	1206.579	163.892	-213.956	1409.792	754.420	-164.258	1412.576	760.141	-70.887	1407.008	748.699	-257.628	1266.179	799.074	-143.714	1260.939	790.198	-199.029	1403.417	380.966	-78.962	1424.564	378.680	-276.768	1391.256	385.304	-175.684	1461.559	379.630	-176.728	1345.648	59.281	-84.479	1199.840	168.826	-247.430	1342.818	66.488	-144.222	1207.498	177.143	-185.418	1303.280	1141.099	-157.548	1385.995	1098.755	-99.566	1383.387	1105.428	-225.709	1379.721	1090.060	-165.752	1409.879	949.757	-173.045	1395.894	466.251	7.935	1527.286	518.078	-290.001	1416.549	535.034	-54.365	1462.086	553.709	-219.678	1435.497	455.929	-76.958	1478.488	467.730	-212.288	1358.529	160.280	-13.467	1330.296	166.053	-264.864	1368.680	214.382	-74.556	1336.878	247.762	-242.455	1442.019	38.301	-122.214	1239.732	79.627	-216.206
	18	0.25000	1357.050	688.662	-160.007	1353.291	698.263	-95.337	1349.771	691.429	-220.931	1400.578	385.824	-128.402	1453.411	385.548	-227.954	1346.956	58.460	-118.382	1236.022	158.478	-212.697	1418.885	756.373	-163.369	1421.499	761.448	-70.086	1416.270	751.297	-256.653	1275.455	800.697	-143.484	1270.581	792.105	-198.739	1404.832	381.165	-78.298	1443.584	383.343	-276.929	1393.663	385.649	-174.656	1479.613	385.572	-177.232	1345.697	59.691	-84.928	1228.444	163.497	-245.979	1343.277	67.080	-144.690	1236.602	171.451	-184.017	1314.117	1143.316	-157.294	1396.144	1100.275	-99.703	1393.938	1107.272	-225.675	1390.277	1091.953	-165.765	1419.024	951.266	-173.407	1398.214	466.691	8.684	1543.196	526.723	-287.075	1420.212	535.287	-53.097	1474.954	560.046	-218.138	1438.228	455.345	-75.656	1494.249	474.695	-211.315	1358.335	160.526	-13.583	1358.296	167.119	-265.654	1369.462	214.742	-74.544	1361.481	248.859	-242.629	1442.177	38.332	-122.274	1274.282	77.155	-216.318
	19	0.25833	1366.171	690.329	-159.859	1362.315	699.514	-94.989	1359.058	693.459	-220.630	1402.612	386.171	-127.843	1470.624	389.779	-227.906	1347.302	58.965	-118.946	1265.936	152.661	-211.578	1427.983	758.118	-162.524	1430.399	762.610	-69.317	1425.567	753.626	-255.731	1284.706	802.080	-143.359	1280.226	793.711	-198.523	1406.258	381.383	-77.702	1461.976	387.781	-277.112	1397.720	386.279	-174.194	1497.252	391.299	-177.478	1345.712	60.143	-85.505	1257.565	157.608	-244.680	1343.416	67.725	-145.210	1266.088	165.307	-182.720	1324.873	1145.294	-157.140	1406.626	1101.897	-99.831	1404.451	1108.944	-225.629	1400.790	1093.602	-165.777	1428.808	952.807	-173.510	1400.751	467.185	9.378	1558.623	534.974	-284.081	1424.477	535.526	-52.154	1487.483	566.035	-216.499	1441.815	455.317	-74.553	1509.606	481.250	-210.157	1358.115	160.798	-13.818	1386.541	167.991	-266.303	1369.934	215.137	-74.622	1385.953	249.635	-242.728	1442.322	38.379	-122.379	1309.243	74.579	-216.476
	20	0.26667	1375.363	691.766	-159.781	1371.367	700.560	-94.709	1368.435	695.202	-220.389	1404.496	386.493	-127.334	1487.240	393.643	-227.899	1347.606	59.505	-119.635	1296.318	146.543	-210.610	1437.114	759.640	-161.750	1439.287	763.611	-68.600	1434.941	755.669	-254.900	1293.950	803.223	-143.338	1289.875	795.012	-198.398	1407.662	381.616	-77.169	1479.726	391.913	-277.301	1401.612	387.301	-173.988	1514.474	396.659	-177.428	1345.684	60.627	-86.209	1287.234	151.257	-243.557	1343.549	68.549	-145.913	1296.204	158.730	-181.588	1335.618	1147.024	-156.991	1417.452	1103.560	-99.857	1414.880	1110.320	-225.542	1411.286	1094.996	-165.790	1439.031	954.247	-173.207	1403.527	467.722	10.012	1573.546	542.702	-281.153	1429.326	535.725	-51.308	1499.712	571.485	-214.782	1445.571	455.493	-73.615	1524.564	487.271	-208.834	1357.820	161.095	-14.168	1415.027	168.705	-266.771	1370.317	215.595	-74.759	1410.449	249.974	-242.510	1442.447	38.438	-122.525	1344.579	71.990	-216.682
